<?xml version="1.0" encoding="UTF-8" standalone="no"?>
<svg
   xmlns:dc="http://purl.org/dc/elements/1.1/"
   xmlns:cc="http://creativecommons.org/ns#"
   xmlns:rdf="http://www.w3.org/1999/02/22-rdf-syntax-ns#"
   xmlns:svg="http://www.w3.org/2000/svg"
   xmlns="http://www.w3.org/2000/svg"
   xmlns:sodipodi="http://sodipodi.sourceforge.net/DTD/sodipodi-0.dtd"
   xmlns:inkscape="http://www.inkscape.org/namespaces/inkscape"
   width="100%"
   height="100%"
   id="svg2"
   version="1.1"
   inkscape:version="0.91 r13725"
   sodipodi:docname="wallpaper-abstr.svg">
  <metadata
     id="metadata105">
    <rdf:RDF>
      <cc:Work
         rdf:about="">
        <dc:format>image/svg+xml</dc:format>
        <dc:type
           rdf:resource="http://purl.org/dc/dcmitype/StillImage" />
        <dc:title></dc:title>
      </cc:Work>
    </rdf:RDF>
  </metadata>
  <defs
     id="defs103" />
  <sodipodi:namedview
     pagecolor="#ffffff"
     bordercolor="#666666"
     borderopacity="1"
     objecttolerance="10"
     gridtolerance="10"
     guidetolerance="10"
     inkscape:pageopacity="0"
     inkscape:pageshadow="2"
     inkscape:window-width="1440"
     inkscape:window-height="844"
     id="namedview101"
     showgrid="false"
     inkscape:zoom="0.10925926"
     inkscape:cx="1285.5612"
     inkscape:cy="1008.0893"
     inkscape:window-x="0"
     inkscape:window-y="0"
     inkscape:window-maximized="1"
     inkscape:current-layer="Fri Apr 10 12:29:07 2015"
     inkscape:snap-page="true"
     inkscape:snap-bbox="true"
     inkscape:object-paths="true"
     inkscape:snap-intersection-paths="true"
     inkscape:object-nodes="true"
     inkscape:snap-smooth-nodes="true"
     inkscape:snap-midpoints="true"
     inkscape:snap-object-midpoints="true"
     inkscape:snap-center="true" />
  <g
     inkscape:groupmode="layer"
     id="Fri Apr 10 12:29:07 2015">
    <path
       style="fill:#000000;stroke:none;stroke-width:200;stroke-linecap:round;stroke-linejoin:round;stroke-miterlimit:4;stroke-dasharray:none"
       d="m 0,0 1920,0 0,1080 -1920,0 z"
       id="rect4510" />
    <path
       style="fill:#000101;stroke:#000101;stroke-width:1.07790363px;stroke-linecap:round;stroke-linejoin:miter"
       d="m 99.902107,559.70614 0,466.08006 88.885543,1.8055 -88.885543,-467.88556 z"
       id="polygon7"
       inkscape:connector-curvature="0" />
    <path
       style="fill:#020608;stroke:#020608;stroke-width:0.83011866px;stroke-linecap:round;stroke-linejoin:miter"
       d="m 1664.4684,51.482672 156.4946,479.096898 0,-476.166388 -156.4946,-2.93051 z"
       id="polygon9"
       inkscape:connector-curvature="0" />
    <path
       style="fill:#040c11;stroke:#040c11;stroke-width:0.83011866px;stroke-linecap:round;stroke-linejoin:miter"
       d="m 99.902105,540.06784 0,19.6358 88.885545,467.88806 164.04999,2.6146 L 99.902105,540.06784 Z"
       id="polygon11"
       inkscape:connector-curvature="0" />
    <path
       style="fill:#061118;stroke:#061118;stroke-width:0.83011866px;stroke-linecap:round;stroke-linejoin:miter"
       d="m 1498.3507,49.085321 322.6123,494.398739 0,-12.90324 -156.4946,-479.098148 -166.1177,-2.397351 z"
       id="polygon13"
       inkscape:connector-curvature="0" />
    <path
       style="fill:#081822;stroke:#081822;stroke-width:0.83011866px;stroke-linecap:round;stroke-linejoin:miter"
       d="m 99.902105,531.42114 0,8.6467 252.935535,490.13846 168.82097,1.9878 L 99.902105,531.42114 Z"
       id="polygon15"
       inkscape:connector-curvature="0" />
    <path
       style="fill:#0a1d28;stroke:#0a1d28;stroke-width:0.83011866px;stroke-linecap:round;stroke-linejoin:miter"
       d="m 1327.9727,47.324764 492.9903,504.113006 0,-7.95495 -322.6123,-494.397499 -170.378,-1.760557 z"
       id="polygon17"
       inkscape:connector-curvature="0" />
    <path
       style="fill:#0c2332;stroke:#0c2332;stroke-width:0.83011866px;stroke-linecap:round;stroke-linejoin:miter"
       d="m 99.902105,524.50878 0,6.91236 421.756505,500.77296 172.29963,1.3397 L 99.902105,524.50878 Z"
       id="polygon19"
       inkscape:connector-curvature="0" />
    <path
       style="fill:#0e2838;stroke:#0e2838;stroke-width:0.83011866px;stroke-linecap:round;stroke-linejoin:miter"
       d="m 1154.6605,46.222232 666.3025,511.983058 0,-6.76752 -492.9903,-504.113006 -173.3122,-1.102532 z"
       id="polygon21"
       inkscape:connector-curvature="0" />
    <path
       style="fill:#102e42;stroke:#102e42;stroke-width:0.83011866px;stroke-linecap:round;stroke-linejoin:miter"
       d="m 99.902105,518.14081 0,6.36797 594.056135,509.02502 174.42353,0.6731 L 99.902105,518.14081 Z"
       id="polygon23"
       inkscape:connector-curvature="0" />
    <path
       style="fill:#113348;stroke:#113348;stroke-width:0.83011866px;stroke-linecap:round;stroke-linejoin:miter"
       d="m 979.77494,45.791457 841.18806,518.761823 0,-6.34673 L 1154.6605,46.222232 979.77494,45.791457 Z"
       id="polygon25"
       inkscape:connector-curvature="0" />
    <path
       style="fill:#143a51;stroke:#143a51;stroke-width:0.83011866px;stroke-linecap:round;stroke-linejoin:miter"
       d="m 99.902105,511.97263 0,6.16943 768.479665,516.06484 175.15523,0 L 99.902105,511.97263 Z"
       id="polygon27"
       inkscape:connector-curvature="0" />
    <path
       style="fill:#153e58;stroke:#153e58;stroke-width:0.83011866px;stroke-linecap:round;stroke-linejoin:miter"
       d="M 979.77494,45.791457 804.72335,46.038684 1820.963,570.74519 l 0,-6.19191 L 979.77494,45.791457 Z"
       id="polygon29"
       inkscape:connector-curvature="0" />
    <path
       style="fill:#174561;stroke:#174561;stroke-width:0.83011866px;stroke-linecap:round;stroke-linejoin:miter"
       d="m 99.902105,505.85563 0,6.117 943.634895,522.23427 174.4759,-0.6731 L 99.902105,505.85563 Z"
       id="polygon31"
       inkscape:connector-curvature="0" />
    <path
       style="fill:#194968;stroke:#194968;stroke-width:0.83011866px;stroke-linecap:round;stroke-linejoin:miter"
       d="M 804.72335,46.038684 630.91289,46.958915 1820.963,576.90339 l 0,-6.15695 L 804.72335,46.038684 Z"
       id="polygon33"
       inkscape:connector-curvature="0" />
    <path
       style="fill:#1b5070;stroke:#1b5070;stroke-width:0.83011866px;stroke-linecap:round;stroke-linejoin:miter"
       d="m 99.902105,499.71493 0,6.1407 1118.110795,527.67817 172.4046,-1.3397 L 99.902105,499.71493 Z"
       id="polygon35"
       inkscape:connector-curvature="0" />
    <path
       style="fill:#1d5477;stroke:#1d5477;stroke-width:0.83011866px;stroke-linecap:round;stroke-linejoin:miter"
       d="M 630.91289,46.958915 459.72579,48.542171 1820.963,583.0953 l 0,-6.19191 L 630.91289,46.958915 Z"
       id="polygon37"
       inkscape:connector-curvature="0" />
    <path
       style="fill:#1f5a7f;stroke:#1f5a7f;stroke-width:0.83011866px;stroke-linecap:round;stroke-linejoin:miter"
       d="m 99.902105,493.50178 0,6.21315 1290.515395,532.47917 168.9758,-1.9878 L 99.902105,493.50178 Z"
       id="polygon39"
       inkscape:connector-curvature="0" />
    <path
       style="fill:#205e85;stroke:#205e85;stroke-width:0.83011866px;stroke-linecap:round;stroke-linejoin:miter"
       d="M 459.72579,48.542171 292.49681,50.769707 1820.963,589.36837 l 0,-6.27432 L 459.72579,48.542171 Z"
       id="polygon41"
       inkscape:connector-curvature="0" />
    <path
       style="fill:#22648e;stroke:#22648e;stroke-width:0.83011866px;stroke-linecap:round;stroke-linejoin:miter"
       d="m 99.902105,487.18002 0,6.32176 1459.491195,536.70452 164.2548,-2.6146 L 99.902105,487.18002 Z"
       id="polygon43"
       inkscape:connector-curvature="0" />
    <path
       style="fill:#236894;stroke:#236894;stroke-width:0.83011866px;stroke-linecap:round;stroke-linejoin:miter"
       d="M 292.49681,50.769707 130.48706,53.614065 1820.963,595.75756 l 0,-6.38919 L 292.49681,50.769707 Z"
       id="polygon45"
       inkscape:connector-curvature="0" />
    <path
       style="fill:#256e9c;stroke:#256e9c;stroke-width:0.83011866px;stroke-linecap:round;stroke-linejoin:miter"
       d="m 99.902105,480.71716 0,6.46286 1623.745995,540.41168 97.3149,-1.9728 0,-19.8506 L 99.902105,480.71716 Z"
       id="polygon47"
       inkscape:connector-curvature="0" />
    <path
       style="fill:#2772a1;stroke:#2772a1;stroke-width:0.83011866px;stroke-linecap:round;stroke-linejoin:miter"
       d="m 130.48706,53.614065 -30.584955,0.674256 0,39.686148 1721.060895,508.319621 0,-6.53653 L 130.48706,53.614065 Z"
       id="polygon49"
       inkscape:connector-curvature="0" />
    <path
       style="fill:#2978a9;stroke:#2978a9;stroke-width:0.83011866px;stroke-linecap:round;stroke-linejoin:miter"
       d="m 99.902105,474.08949 0,6.62767 1721.060895,525.05114 0,-45.17135 L 99.902105,474.08949 Z"
       id="polygon51"
       inkscape:connector-curvature="0" />
    <path
       style="fill:#2a7bae;stroke:#2a7bae;stroke-width:0.83011866px;stroke-linecap:round;stroke-linejoin:miter"
       d="m 99.902105,93.974469 0,42.120961 1721.060895,472.91249 0,-6.71259 L 99.902105,93.974469 Z"
       id="polygon53"
       inkscape:connector-curvature="0" />
    <path
       style="fill:#2c80b5;stroke:#2c80b5;stroke-width:0.83011866px;stroke-linecap:round;stroke-linejoin:miter"
       d="m 99.902105,467.26577 0,6.82372 1721.060895,486.50746 0,-38.28896 L 99.902105,467.26577 Z"
       id="polygon55"
       inkscape:connector-curvature="0" />
    <path
       style="fill:#2d84ba;stroke:#2d84ba;stroke-width:0.83011866px;stroke-linecap:round;stroke-linejoin:miter"
       d="m 99.902105,136.09543 0,35.93155 1721.060895,443.89704 0,-6.9161 L 99.902105,136.09543 Z"
       id="polygon57"
       inkscape:connector-curvature="0" />
    <path
       style="fill:#2e89c1;stroke:#2e89c1;stroke-width:0.83011866px;stroke-linecap:round;stroke-linejoin:miter"
       d="m 99.902105,460.21856 0,7.04721 1721.060895,455.04222 0,-32.92861 L 99.902105,460.21856 Z"
       id="polygon59"
       inkscape:connector-curvature="0" />
    <path
       style="fill:#308cc6;stroke:#308cc6;stroke-width:0.83011866px;stroke-linecap:round;stroke-linejoin:miter"
       d="m 99.902105,172.02698 0,31.07067 1721.060895,419.97597 0,-7.1496 L 99.902105,172.02698 Z"
       id="polygon61"
       inkscape:connector-curvature="0" />
    <path
       style="fill:#3191cc;stroke:#3191cc;stroke-width:0.83011866px;stroke-linecap:round;stroke-linejoin:miter"
       d="m 99.902105,452.91788 0,7.30068 1721.060895,429.16082 0,-28.67705 L 99.902105,452.91788 Z"
       id="polygon63"
       inkscape:connector-curvature="0" />
    <path
       style="fill:#3294d0;stroke:#3294d0;stroke-width:0.83011866px;stroke-linecap:round;stroke-linejoin:miter"
       d="m 99.902105,203.09765 0,27.18372 1721.060895,400.20656 0,-7.41305 L 99.902105,203.09765 Z"
       id="polygon65"
       inkscape:connector-curvature="0" />
    <path
       style="fill:#3398d6;stroke:#3398d6;stroke-width:0.83011866px;stroke-linecap:round;stroke-linejoin:miter"
       d="m 99.902105,445.33251 0,7.58537 1721.060895,407.78445 0,-25.24334 L 99.902105,445.33251 Z"
       id="polygon67"
       inkscape:connector-curvature="0" />
    <path
       style="fill:#349ada;stroke:#349ada;stroke-width:0.83011866px;stroke-linecap:round;stroke-linejoin:miter"
       d="m 99.902105,230.28262 0,24.02845 1721.060895,383.89084 0,-7.71273 L 99.902105,230.28262 Z"
       id="polygon69"
       inkscape:connector-curvature="0" />
    <path
       style="fill:#369edf;stroke:#369edf;stroke-width:0.83011866px;stroke-linecap:round;stroke-linejoin:miter"
       d="m 99.902105,437.42624 0,7.90627 1721.060895,390.12648 0,-22.43399 L 99.902105,437.42624 Z"
       id="polygon71"
       inkscape:connector-curvature="0" />
    <path
       style="fill:#37a1e3;stroke:#37a1e3;stroke-width:0.83011866px;stroke-linecap:round;stroke-linejoin:miter"
       d="m 99.902105,254.31107 0,21.43506 1721.060895,370.50439 0,-8.04861 L 99.902105,254.31107 Z"
       id="polygon73"
       inkscape:connector-curvature="0" />
    <path
       style="fill:#38a4e7;stroke:#38a4e7;stroke-width:0.83011866px;stroke-linecap:round;stroke-linejoin:miter"
       d="m 99.902105,429.15788 0,8.26836 L 1820.963,813.025 l 0,-20.10903 L 99.902105,429.15788 Z"
       id="polygon75"
       inkscape:connector-curvature="0" />
    <path
       style="fill:#38a6ea;stroke:#38a6ea;stroke-width:0.83011866px;stroke-linecap:round;stroke-linejoin:miter"
       d="m 99.902105,275.74613 0,19.27621 1721.060895,359.65512 0,-8.42694 L 99.902105,275.74613 Z"
       id="polygon77"
       inkscape:connector-curvature="0" />
    <path
       style="fill:#39a9ee;stroke:#39a9ee;stroke-width:0.83011866px;stroke-linecap:round;stroke-linejoin:miter"
       d="m 99.902105,420.48372 0,8.67416 1721.060895,363.75809 0,-18.16119 L 99.902105,420.48372 Z"
       id="polygon79"
       inkscape:connector-curvature="0" />
    <path
       style="fill:#3aaaf1;stroke:#3aaaf1;stroke-width:0.83011866px;stroke-linecap:round;stroke-linejoin:miter"
       d="m 99.902105,295.02234 0,17.4607 1721.060895,351.04588 0,-8.85146 L 99.902105,295.02234 Z"
       id="polygon81"
       inkscape:connector-curvature="0" />
    <path
       style="fill:#3badf4;stroke:#3badf4;stroke-width:0.83011866px;stroke-linecap:round;stroke-linejoin:miter"
       d="m 99.902105,411.3538 0,9.12992 1721.060895,354.27106 0,-16.5155 L 99.902105,411.3538 Z"
       id="polygon83"
       inkscape:connector-curvature="0" />
    <path
       style="fill:#3baef6;stroke:#3baef6;stroke-width:0.83011866px;stroke-linecap:round;stroke-linejoin:miter"
       d="m 99.902105,312.48304 0,15.92116 1721.060895,344.45442 0,-9.3297 L 99.902105,312.48304 Z"
       id="polygon85"
       inkscape:connector-curvature="0" />
    <path
       style="fill:#3cb0f9;stroke:#3cb0f9;stroke-width:0.83011866px;stroke-linecap:round;stroke-linejoin:miter"
       d="m 99.902105,401.70946 0,9.64434 1721.060895,346.88548 0,-15.1133 L 99.902105,401.70946 Z"
       id="polygon87"
       inkscape:connector-curvature="0" />
    <path
       style="fill:#3cb1fa;stroke:#3cb1fa;stroke-width:0.83011866px;stroke-linecap:round;stroke-linejoin:miter"
       d="m 99.902105,328.4042 0,14.60387 1721.060895,339.72089 0,-9.87034 L 99.902105,328.4042 Z"
       id="polygon89"
       inkscape:connector-curvature="0" />
    <path
       style="fill:#3db2fc;stroke:#3db2fc;stroke-width:0.83011866px;stroke-linecap:round;stroke-linejoin:miter"
       d="m 99.902105,391.4845 0,10.22496 1721.060895,341.41652 0,-13.90963 L 99.902105,391.4845 Z"
       id="polygon91"
       inkscape:connector-curvature="0" />
    <path
       style="fill:#3db3fd;stroke:#3db3fd;stroke-width:0.83011866px;stroke-linecap:round;stroke-linejoin:miter"
       d="m 99.902105,343.00807 0,13.47011 1721.060895,336.7317 0,-10.48092 L 99.902105,343.00807 Z"
       id="polygon93"
       inkscape:connector-curvature="0" />
    <path
       style="fill:#3db4fe;stroke:#3db4fe;stroke-width:0.83011866px;stroke-linecap:round;stroke-linejoin:miter"
       d="m 99.902105,380.60028 0,10.88422 1721.060895,337.73185 0,-12.86828 L 99.902105,380.60028 Z"
       id="polygon95"
       inkscape:connector-curvature="0" />
    <path
       style="fill:#3db4ff;stroke:#3db4ff;stroke-width:0.83011866px;stroke-linecap:round;stroke-linejoin:miter"
       d="m 99.902105,356.47818 0,12.4887 1721.060895,335.4169 0,-11.1739 L 99.902105,356.47818 Z"
       id="polygon97"
       inkscape:connector-curvature="0" />
    <path
       style="fill:#3db5ff;stroke:#3db5ff;stroke-width:0.83011866px;stroke-linecap:round;stroke-linejoin:miter"
       d="m 99.902105,368.96688 0,11.6334 1721.060895,335.74779 0,-11.96429 L 99.902105,368.96688 Z"
       id="polygon99"
       inkscape:connector-curvature="0" />
    <!-- end Cylinder -->
  </g>
</svg>
